<svg xmlns="http://www.w3.org/2000/svg" viewBox="0 0 64 64" role="img" aria-label="NoBonir">
  <defs>
    <linearGradient id="bg" x1="0" y1="0" x2="1" y2="1">
      <stop offset="0%" stop-color="#0f172a"/>
      <stop offset="45%" stop-color="#1e293b"/>
      <stop offset="100%" stop-color="#0b1224"/>
    </linearGradient>
    <linearGradient id="ring" x1="0" y1="0" x2="1" y2="1">
      <stop offset="0%" stop-color="#2dd4bf"/>
      <stop offset="50%" stop-color="#22d3ee"/>
      <stop offset="100%" stop-color="#3b82f6"/>
    </linearGradient>
    <linearGradient id="mono" x1="0" y1="0" x2="1" y2="1">
      <stop offset="0%" stop-color="#ffffff"/>
      <stop offset="100%" stop-color="#dbeafe"/>
    </linearGradient>
  </defs>

  <rect x="4" y="4" width="56" height="56" rx="15" fill="url(#bg)"/>
  <rect x="5" y="5" width="54" height="54" rx="14" fill="none" stroke="url(#ring)" stroke-width="2" opacity="0.95"/>

  <path d="M18 46V18h5.5L34 34.2V18h5.2v28h-5.1L23.2 29.8V46Z" fill="url(#mono)"/>
  <path d="M42.5 18h7.6c5.4 0 8.9 2.8 8.9 7.1 0 2.6-1.2 4.6-3.4 5.8 2.9 1.1 4.6 3.5 4.6 6.6 0 5.2-4.1 8.5-10.4 8.5h-7.3Zm5.2 11.2h2.1c2.4 0 3.8-1.2 3.8-3.1 0-1.9-1.4-3-3.8-3h-2.1Zm0 12.2h2.7c3.1 0 4.8-1.3 4.8-3.6s-1.8-3.7-4.9-3.7h-2.6Z" fill="url(#ring)"/>
</svg>
